<svg width="37" height="36" viewBox="0 0 37 36" fill="none" xmlns="http://www.w3.org/2000/svg">
<path d="M36.5758 17.9924C36.5758 8.05549 28.5692 3.12479e-05 18.6927 3.12479e-05C8.8161 3.12479e-05 0.80957 8.05549 0.80957 17.9924C0.80957 26.9729 7.34916 34.4164 15.8984 35.7662V23.1933H11.3578V17.9924H15.8984V14.0285C15.8984 9.51913 18.5683 7.02831 22.6532 7.02831C24.6097 7.02831 26.6562 7.37972 26.6562 7.37972V11.8075H24.4012C22.1797 11.8075 21.4869 13.1945 21.4869 14.6173V17.9924H26.4467L25.6538 23.1933H21.4869V35.7662C30.0362 34.4164 36.5758 26.9729 36.5758 17.9924Z" fill="#161616"/>
</svg>
