<svg width="36" height="36" viewBox="0 0 36 36" fill="none" xmlns="http://www.w3.org/2000/svg">
<path fill-rule="evenodd" clip-rule="evenodd" d="M35.0508 18.2896C35.0508 17.0215 34.937 15.8022 34.7257 14.6317H17.8831V21.5492H27.5074C27.0929 23.7846 25.8329 25.6786 23.9389 26.9467V31.4337H29.7184C33.1 28.3204 35.0508 23.7358 35.0508 18.2896Z" fill="#161616"/>
<path fill-rule="evenodd" clip-rule="evenodd" d="M17.8831 35.766C22.7115 35.766 26.7596 34.1647 29.7185 31.4334L23.939 26.9464C22.3376 28.0194 20.2892 28.6534 17.8831 28.6534C13.2254 28.6534 9.28294 25.5076 7.87668 21.2807H1.9021V25.9141C4.84468 31.7586 10.8924 35.766 17.8831 35.766Z" fill="#161616"/>
<path fill-rule="evenodd" clip-rule="evenodd" d="M7.87669 21.281C7.51903 20.208 7.31581 19.0618 7.31581 17.8832C7.31581 16.7045 7.51903 15.5584 7.87669 14.4854V9.85205H1.90211C0.690938 12.2663 0 14.9975 0 17.8832C0 20.7689 0.690938 23.5001 1.90211 25.9143L7.87669 21.281Z" fill="#161616"/>
<path fill-rule="evenodd" clip-rule="evenodd" d="M17.8831 7.1126C20.5087 7.1126 22.866 8.01488 24.7193 9.78693L29.8485 4.65774C26.7515 1.77205 22.7034 0 17.8831 0C10.8924 0 4.84468 4.00744 1.9021 9.85196L7.87668 14.4853C9.28294 10.2584 13.2254 7.1126 17.8831 7.1126Z" fill="#161616"/>
</svg>
